<?xml version="1.0" encoding="UTF-8"?>
<svg version="1.1" xmlns="http://www.w3.org/2000/svg" width="500" height="500">
<path d="M0 0 C165 0 330 0 500 0 C500 165 500 330 500 500 C335 500 170 500 0 500 C0 335 0 170 0 0 Z " fill="#FEFEFE" transform="translate(0,0)"/>
<path d="M0 0 C8.1431829 6.01644097 13.25027634 15.0533727 15 25 C15.80472006 32.2424805 14.31014178 38.17730148 12 45 C11.6594488 46.33150808 11.32499959 47.66461086 11 49 C12.19496094 48.45730469 13.38992187 47.91460937 14.62109375 47.35546875 C16.22645989 46.63258458 17.83193448 45.90994122 19.4375 45.1875 C20.22060547 44.83107422 21.00371094 44.47464844 21.81054688 44.10742188 C36.5234375 37.5078125 36.5234375 37.5078125 41 39 C39.59814453 39.58394531 39.59814453 39.58394531 38.16796875 40.1796875 C11.0696593 51.64328019 -11.60488135 66.84091297 -33 87 C-33.78246094 87.72832031 -34.56492187 88.45664063 -35.37109375 89.20703125 C-41.98721959 95.56370118 -47.49713387 102.68713602 -53 110 C-53.42958008 110.56348145 -53.85916016 111.12696289 -54.30175781 111.70751953 C-86.79561049 154.51985891 -100.57889768 210.72243535 -93.54882812 263.81005859 C-90.58232734 283.56837875 -85.34022068 302.83425872 -77 321 C-76.67386719 321.71043457 -76.34773438 322.42086914 -76.01171875 323.15283203 C-66.4722232 343.59528689 -54.1392296 362.28778174 -38.42724609 378.52148438 C-36.94358254 380.05844409 -35.48227723 381.61501765 -34.01953125 383.171875 C-20.83392637 396.99435539 -5.48647792 407.49417928 11 417 C11.92232422 417.54648193 11.92232422 417.54648193 12.86328125 418.10400391 C31.93189818 429.36653791 53.39003783 435.72930611 75 440 C75.93457031 440.19505127 76.86914062 440.39010254 77.83203125 440.59106445 C87.70145826 442.40373418 97.59072468 442.33747178 107.59033203 442.31567383 C110.59835574 442.31252787 113.60537936 442.33599584 116.61328125 442.36132812 C133.66147248 442.41892041 149.68368458 440.32262242 166.125 435.75 C167.22175049 435.44553955 168.31850098 435.1410791 169.44848633 434.82739258 C188.18857198 430.28963995 188.18857198 430.28963995 201.7109375 417.76171875 C207.45350281 405.49610823 207.45350281 405.49610823 209.0625 392.25 C209.04896484 390.49429688 209.04896484 390.49429688 209.03515625 388.703125 C209.02355469 387.81109375 209.01195312 386.9190625 209 386 C208.56300781 387.86591797 208.56300781 387.86591797 208.1171875 389.76953125 C205.43179446 400.82095645 202.48889914 411.11452238 195 420 C194.34 420 193.68 420 193 420 C188.46615582 411.8026478 187.77330228 404.36743688 189.875 395.25 C191.93830879 388.97955425 195.95157888 383.76162353 199.72265625 378.41796875 C203.14954683 373.45443859 204.29513467 368.99135529 205 363 C205.66 363 206.32 363 207 363 C207 363.66 207 364.32 207 365 C207.5878125 365.23847656 208.175625 365.47695313 208.78125 365.72265625 C215.37828601 369.52059775 219.08594262 378.32245901 221.33984375 385.2890625 C223.85687853 395.62528816 220.76300399 405.71077139 216 415 C232.58312685 404.285049 232.58312685 404.285049 248 392 C249.14551252 391.03347381 250.29136832 390.06735438 251.4375 389.1015625 C260.17040415 381.59904529 260.17040415 381.59904529 264 371 C264.25910156 369.90171875 264.25910156 369.90171875 264.5234375 368.78125 C266.51800119 357.14084549 265.72103536 346.42045726 260 336 C260.144375 336.52464844 260.28875 337.04929687 260.4375 337.58984375 C263.42473416 350.05739742 262.94301521 362.81889943 259 375 C255.72410358 373.61022576 253.98577808 372.10120808 251.875 369.25 C251.37742187 368.59515625 250.87984375 367.9403125 250.3671875 367.265625 C245.78714707 359.67584371 245.66859879 349.63344325 247.67578125 341.140625 C248.22550242 339.42111803 248.77758887 337.70236546 249.33203125 335.984375 C250.71999647 329.78317366 250.21403744 323.31806808 250 317 C261.99940563 322.55637502 270.82001659 328.17633528 276.16015625 340.7265625 C277.2198457 344.85688694 277.21843804 348.63435042 277.125 352.875 C277.11597656 353.65875 277.10695313 354.4425 277.09765625 355.25 C277.07428063 357.16680055 277.03841653 359.08344191 277 361 C293.78260655 339.96093526 319.1019609 301.13609603 316 273 C314.55661402 270.34677852 314.55661402 270.34677852 312.625 267.75 C307.75686461 260.43304499 305.66213123 252.89976593 307.37719727 244.0546875 C307.89185552 241.98696782 308.44097381 239.93114753 309 237.875 C310.91235991 230.41007191 311.48383935 223.72798962 311 216 C321.03906692 219.08229601 328.80870174 225.10792596 334.28515625 234.11328125 C338.51235951 242.15860359 339.35242758 251.10341576 337.31640625 259.98046875 C334.89354261 267.26916642 331.52848856 272.62210553 325.125 276.9375 C324.42375 277.288125 323.7225 277.63875 323 278 C323.13277344 277.34773438 323.26554687 276.69546875 323.40234375 276.0234375 C323.57894531 275.14945312 323.75554687 274.27546875 323.9375 273.375 C324.19853516 272.08722656 324.19853516 272.08722656 324.46484375 270.7734375 C326.81828569 258.57676758 326.69781475 248.63967495 322 237 C321.91680544 239.98432732 321.91680544 239.98432732 322.4765625 242.82421875 C326.38713794 266.55032197 316.68438399 294.3808049 310 317 C310.74443359 316.29423828 310.74443359 316.29423828 311.50390625 315.57421875 C319.55082244 308.19915135 327.0964797 305.56911699 338.0390625 305.73046875 C348.0896313 306.64536222 358.03945324 312.17995257 364.578125 319.8515625 C365.6875 321.5 365.6875 321.5 367 324 C366.34257812 324.10054688 365.68515625 324.20109375 365.0078125 324.3046875 C356.78153348 325.93210855 350.33414029 329.28746089 343.14501953 333.50732422 C342.40622559 333.94061035 341.66743164 334.37389648 340.90625 334.8203125 C340.24947266 335.21492676 339.59269531 335.60954102 338.91601562 336.01611328 C332.59788634 339.26051453 323.8853228 339.15140886 317.21875 337.17578125 C313.97080479 335.75744154 311.51737895 334.51737895 309 332 C317.89893003 324.75668486 328.14479809 321.72251535 339.41796875 320.359375 C341.98050307 320.14293317 341.98050307 320.14293317 344 319 C332.94732441 318.35406441 324.25160733 319.26651004 314 324 C313.16855469 324.33 312.33710938 324.66 311.48046875 325 C303.92228936 328.81218155 301.1091193 336.73432276 297.5390625 343.96484375 C289.11795937 360.97236035 277.33856193 375.7011058 265 390 C266.03898437 389.95359375 267.07796875 389.9071875 268.1484375 389.859375 C279.63765312 389.49369615 287.35131127 390.57179161 296.3125 398.375 C299.82097237 401.72876808 303.13252223 405.08111371 306 409 C306 409.66 306 410.32 306 411 C304.88818359 411.09474609 304.88818359 411.09474609 303.75390625 411.19140625 C295.78011721 412.11859102 289.2121931 414.25833569 281.91430664 417.52368164 C274.76180876 420.69984697 267.09854481 422.55106333 259.40625 420.2109375 C255.19970561 418.59018069 251.42665911 416.99439707 248 414 C248 413.34 248 412.68 248 412 C249.83008867 411.20086128 251.66426966 410.41109245 253.5 409.625 C254.5209375 409.18414062 255.541875 408.74328125 256.59375 408.2890625 C263.38785567 405.71789866 269.76036498 404.67612867 277 404.375 C277.77472656 404.33632813 278.54945313 404.29765625 279.34765625 404.2578125 C281.23143415 404.16478643 283.11568256 404.08136825 285 404 C270.52232927 400.17081628 257.6821189 402.26239745 244.5703125 409.71875 C239.46632981 412.88015051 234.69341989 416.52521672 229.86669922 420.08813477 C222.57679908 425.4209169 215.02113246 429.8679618 207 434 C206.05350586 434.49959229 206.05350586 434.49959229 205.08789062 435.00927734 C184.09152726 445.99437775 161.24494863 452.03724866 138 456 C136.95714844 456.19464844 135.91429687 456.38929688 134.83984375 456.58984375 C127.62224822 457.63227502 120.27891966 457.71983026 113 458 C111.82727539 458.05317383 111.82727539 458.05317383 110.63085938 458.10742188 C88.56569994 459.02446412 66.0316515 455.68053538 45 449 C44.19836426 448.74879395 43.39672852 448.49758789 42.57080078 448.23876953 C17.01571064 440.10239554 -6.05324601 427.70766156 -27 411 C-27.57202148 410.54512207 -28.14404297 410.09024414 -28.73339844 409.62158203 C-41.44643804 399.41759687 -53.09099432 387.95928678 -63 375 C-63.41282227 374.47422363 -63.82564453 373.94844727 -64.25097656 373.40673828 C-98.9115155 329.16388159 -114.34191554 270.93251069 -108.05249023 215.19580078 C-106.069499 199.90484173 -102.31851925 185.04320573 -97.41137695 170.4440918 C-94.25652507 161.05471561 -92.60854791 152.62949664 -92.625 142.6875 C-92.62661133 141.67510254 -92.62822266 140.66270508 -92.62988281 139.61962891 C-92.78586416 130.10629604 -93.92983771 121.07016229 -101 114 C-100.79503906 114.58007812 -100.59007812 115.16015625 -100.37890625 115.7578125 C-99.97478516 116.92957031 -99.97478516 116.92957031 -99.5625 118.125 C-99.29566406 118.89070313 -99.02882813 119.65640625 -98.75390625 120.4453125 C-95.0707788 132.92596198 -95.90242137 147.78043515 -100 160 C-107.18846505 156.86292863 -111.4654494 150.16519745 -114.2890625 143.08203125 C-117.16776169 134.65155504 -116.36961398 126.24186587 -114.5 117.6875 C-112.55320777 108.61471355 -112.31861913 100.12555905 -114 91 C-101.7097349 94.3842759 -91.01663185 101.0007908 -84.140625 111.96484375 C-81.12672983 117.65536487 -79.24790177 122.55455406 -79 129 C-75.88875487 126.0879295 -73.60951127 123.08275971 -71.3125 119.5 C-68.49675246 115.17937435 -65.54707523 111.06539153 -62.375 107 C-54.42911708 96.54272403 -49.61752822 86.27586643 -49.875 73.125 C-49.88402344 72.24585937 -49.89304687 71.36671875 -49.90234375 70.4609375 C-49.92575423 68.3071729 -49.9616199 66.15354986 -50 64 C-50.23783203 65.63195312 -50.23783203 65.63195312 -50.48046875 67.296875 C-52.33984465 79.28499246 -55.60939497 89.58568069 -62 100 C-62.66 100 -63.32 100 -64 100 C-64.64995297 98.58521865 -65.29478722 97.16808513 -65.9375 95.75 C-66.29714844 94.96109375 -66.65679687 94.1721875 -67.02734375 93.359375 C-70.34143534 85.32037372 -69.51944667 78.0064006 -66.4140625 70.01953125 C-64.49248327 65.91626953 -62.14177038 62.09506547 -59.80078125 58.22338867 C-56.74038371 52.97314869 -55.49076555 48.01187803 -55 42 C-46.92084552 46.94642111 -41.68189786 54.30400762 -38 63 C-37.39923515 65.94305326 -37.08860551 68.88596785 -36.8125 71.875 C-36.73064453 72.65875 -36.64878906 73.4425 -36.56445312 74.25 C-36.36588325 76.16561529 -36.18148253 78.08269042 -36 80 C-35.52433594 79.55011719 -35.04867187 79.10023437 -34.55859375 78.63671875 C-30.34469944 74.7642818 -26.02876817 71.25206086 -21.35522461 67.95996094 C-11.20150454 60.79439643 -5.06313396 53.451385 0 42 C0.433125 41.05125 0.86625 40.1025 1.3125 39.125 C2.41341808 34.12082693 2.14860133 29.10197892 2 24 C1.86464844 24.70382813 1.72929687 25.40765625 1.58984375 26.1328125 C-0.9413828 37.74310914 -5.62850073 48.42431782 -14 57 C-16 56 -16 56 -17.09375 53.91015625 C-19.64202862 45.72710636 -19.18236045 36.3399454 -15.5 28.625 C-12.72395205 23.76526761 -9.35398462 19.52610284 -5.765625 15.24609375 C-2.12898277 10.61983428 -0.71181879 5.8369141 0 0 Z " fill="#34A645" transform="translate(132,20)"/>
<path d="M0 0 C0.88300781 0.20898926 1.76601563 0.41797852 2.67578125 0.63330078 C34.42265843 8.38990419 60.89919918 24.29752277 85 46 C85.79792969 46.71285156 86.59585937 47.42570312 87.41796875 48.16015625 C113.6293382 72.93921043 132.12432352 110.48336724 137 146 C137.15227051 147.03713135 137.15227051 147.03713135 137.30761719 148.09521484 C141.39986161 176.73447112 138.38698479 203.29150764 131 231 C129.81288437 227.48807292 130.21382037 224.97736981 130.9140625 221.37109375 C132.31124011 212.92559095 132.39648871 204.60057041 132.375 196.0625 C132.37445618 195.247742 132.37391235 194.43298401 132.37335205 193.59353638 C132.33284121 180.36285804 131.37861464 167.8439136 128 155 C127.79101074 154.16839355 127.58202148 153.33678711 127.36669922 152.47998047 C115.96856521 107.95468544 87.0577533 70.75368808 48 47 C8.95581947 23.97032801 -37.42844152 16.98983155 -81.55493164 27.69384766 C-107.38150747 34.39991827 -131.90410367 46.30314866 -152 64 C-152.86238281 64.7528125 -153.72476563 65.505625 -154.61328125 66.28125 C-157.10584105 68.49013456 -159.56067093 70.73256996 -162 73 C-162.66515625 73.61101562 -163.3303125 74.22203125 -164.015625 74.8515625 C-194.3144563 103.79556801 -212.05613514 148.1135912 -213.18359375 189.60546875 C-213.34755826 199.80658393 -212.97328022 209.73108965 -211.4375 219.8203125 C-211.05449421 222.60394386 -210.91538242 225.1970425 -211 228 C-212.95726122 225.06410818 -213.52352928 223.36884456 -214.25390625 219.9921875 C-214.57584961 218.51105469 -214.57584961 218.51105469 -214.90429688 217 C-215.12150391 215.96875 -215.33871094 214.9375 -215.5625 213.875 C-215.78357422 212.86695313 -216.00464844 211.85890625 -216.23242188 210.8203125 C-218.10549564 202.08307414 -219.14297081 193.55064531 -219.23828125 184.6171875 C-219.25317596 183.46469765 -219.25317596 183.46469765 -219.26837158 182.28892517 C-219.68919625 141.25102396 -210.51093582 103.63875541 -186 70 C-185.59233398 69.43152344 -185.18466797 68.86304688 -184.76464844 68.27734375 C-156.98009869 29.89050712 -114.16875106 5.08166793 -67.76171875 -2.75 C-45.49754364 -6.0260068 -21.84328564 -5.23228483 0 0 Z " fill="#51B948" transform="translate(282,78)"/>
<path d="M0 0 C6.16939213 3.67790685 13.29515444 8.68878695 15.25 15.9375 C16.31299699 25.30199731 15.71888748 32.24737815 11.23046875 40.68359375 C9.94684021 43.03540957 9.94684021 43.03540957 10.9375 46.125 C11.370625 47.053125 11.80375 47.98125 12.25 48.9375 C12.69779506 52.4655823 12.91634715 55.75288285 11.125 58.9375 C8.35184376 60.41651666 6.33815875 60.32351984 3.25 59.9375 C1.375 58.5625 1.375 58.5625 0.25 56.9375 C0.25 56.2775 0.25 55.6175 0.25 54.9375 C-0.636875 55.2675 -1.52375 55.5975 -2.4375 55.9375 C-8.53499882 57.63883877 -15.93764951 58.40378865 -21.93359375 56.09765625 C-28.41129562 51.81285122 -33.58406831 44.27760183 -35.75 36.9375 C-36.77454996 26.09434628 -35.48444888 16.37005199 -28.5 7.76171875 C-20.34789289 -0.73612505 -11.51273544 -3.26194171 0 0 Z " fill="#F3CA46" transform="translate(154.75,206.0625)"/>
<path d="M0 0 C5.37050446 3.99665448 7.41263497 9.70945187 9 16 C9.39661658 19.47361905 9.4218392 22.90483101 9.3984375 26.3984375 C9.40130768 27.35521393 9.40417786 28.31199036 9.40713501 29.29776001 C9.40916281 31.30284219 9.40372362 33.30794473 9.39111328 35.31298828 C9.37493428 38.38748819 9.39106022 41.46069477 9.41015625 44.53515625 C9.40817567 46.48958623 9.40433585 48.44401541 9.3984375 50.3984375 C9.40754654 51.77653091 9.40754654 51.77653091 9.4168396 53.1824646 C9.40738312 54.03410187 9.39792664 54.88573914 9.38818359 55.76318359 C9.38579681 56.51103119 9.38341003 57.25887878 9.38095093 58.02938843 C8.89294994 60.55375658 8.01488104 61.44606581 6 63 C3.5 63.375 3.5 63.375 1 63 C-0.8125 61.625 -0.8125 61.625 -2 60 C-2 59.34 -2 58.68 -2 58 C-3.485 57.505 -3.485 57.505 -5 57 C-6.60725635 53.78548731 -6.05748185 50.56387464 -6 47 C-8.97 47 -11.94 47 -15 47 C-15.12117188 47.81984375 -15.24234375 48.6396875 -15.3671875 49.484375 C-15.53476563 50.56203125 -15.70234375 51.6396875 -15.875 52.75 C-16.03742188 53.81734375 -16.19984375 54.8846875 -16.3671875 55.984375 C-16.93223882 58.67708871 -17.63422914 60.63572439 -19 63 C-22.35402299 63.46956322 -24.89693081 63.73936742 -27.80078125 61.79296875 C-30.77100722 58.76603202 -32.41794507 56.01795305 -32.6875 51.75 C-31.51152867 34.55468588 -24.67457296 16.2467537 -12.859375 3.6015625 C-8.80501945 0.10936549 -5.34710454 -0.82972312 0 0 Z " fill="#5BB37A" transform="translate(174,282)"/>
<path d="M0 0 C5.45774701 2.62391683 10.26729685 7.5345937 13 13 C13.91995386 18.50807819 13.22853858 22.27086535 10.125 26.9375 C8.51350125 29.14455264 6.93367304 31.06632696 5 33 C5.74765625 33.79664063 6.4953125 34.59328125 7.265625 35.4140625 C8.26063721 36.48416997 9.25541648 37.55449408 10.25 38.625 C10.98669922 39.40810547 10.98669922 39.40810547 11.73828125 40.20703125 C20.04148874 49.17449534 20.04148874 49.17449534 19.9375 53.75 C19 56 19 56 16 58 C13.25 58.578125 13.25 58.578125 10 58 C7.32894124 55.8785039 5.1986865 53.34713842 3 50.75 C-1.03885166 46.08503815 -4.66162057 42.15745613 -10 39 C-10.0093457 39.57967529 -10.01869141 40.15935059 -10.02832031 40.7565918 C-10.0822407 43.40106946 -10.16584129 46.04381893 -10.25 48.6875 C-10.27126953 50.05551758 -10.27126953 50.05551758 -10.29296875 51.45117188 C-10.4495696 55.7576953 -10.61656608 58.36729433 -12.88671875 62.11328125 C-15 64 -15 64 -17.5625 64.5 C-20.35854421 63.92645247 -21.32992708 63.28536295 -23 61 C-23 60.34 -23 59.68 -23 59 C-23.99 58.67 -24.98 58.34 -26 58 C-26.70474712 15.0700584 -26.70474712 15.0700584 -17.1875 5.1015625 C-11.61505542 0.15601793 -7.45106426 -0.80489892 0 0 Z " fill="#5BB37A" transform="translate(313,285)"/>
<path d="M0 0 C4.13366385 1.26111778 6.0394875 2.47781512 8.55078125 5.94433594 C12.30902903 13.15410166 7.24977018 27.09284342 5.84106445 34.89501953 C5.52865655 36.64116532 5.22338965 38.38860285 4.92504883 40.13720703 C4.49017009 42.68561068 4.03464405 45.22954089 3.57421875 47.7734375 C3.44488449 48.55262543 3.31555023 49.33181335 3.18229675 50.13461304 C2.33917515 54.62875482 1.42204896 57.36565279 -2.3125 60.125 C-4.83984375 60.59375 -4.83984375 60.59375 -7.3125 60.125 C-12.56124372 56.02203193 -15.64715111 50.09538152 -18.3125 44.125 C-18.48265625 45.22199219 -18.6528125 46.31898438 -18.828125 47.44921875 C-19.07211598 48.90378037 -19.31695245 50.35820034 -19.5625 51.8125 C-19.72685547 52.8943457 -19.72685547 52.8943457 -19.89453125 53.99804688 C-20.71370022 58.71904702 -21.90663173 61.55728262 -25.3125 65.125 C-28.5263552 65.125 -30.61974801 64.7244675 -33.08203125 62.59375 C-36.23374528 58.8736941 -37.35952208 57.2787614 -37.15234375 52.1953125 C-36.22843537 45.90470717 -34.82535289 39.7013329 -33.4375 33.5 C-33.18097656 32.31148438 -32.92445312 31.12296875 -32.66015625 29.8984375 C-29.39798915 15.21048915 -29.39798915 15.21048915 -25.3125 11.125 C-22.5625 10.5625 -22.5625 10.5625 -19.3125 11.125 C-14.64665699 14.92513238 -12.52883174 19.67896951 -10.3125 25.125 C-9.83085812 22.77131607 -9.35213352 20.41709845 -8.875 18.0625 C-8.74029297 17.40572266 -8.60558594 16.74894531 -8.46679688 16.07226562 C-7.80571418 12.79910008 -7.23640076 9.56637519 -6.78515625 6.25390625 C-6.3125 3.125 -6.3125 3.125 -5.1875 1.125 C-3.3125 0.125 -3.3125 0.125 0 0 Z " fill="#5CB37B" transform="translate(127.3125,284.875)"/>
<path d="M0 0 C1.88235352 -0.06767578 1.88235352 -0.06767578 3.80273438 -0.13671875 C9.82277231 -0.18110028 14.35462475 -0.09421318 19.20703125 3.7265625 C21.73632413 6.40411604 22.28812679 7.50795779 23.0625 11.2265625 C22.19129051 15.1742305 20.98737271 16.9907682 18.3125 20 C17.49910156 20.93199219 16.68570313 21.86398438 15.84765625 22.82421875 C15.01105469 23.74847656 14.17445313 24.67273438 13.3125 25.625 C12.52746094 26.51832031 11.74242187 27.41164062 10.93359375 28.33203125 C9.07468494 30.44367185 7.20155349 32.54034969 5.3125 34.625 C6.04855469 34.63917969 6.78460938 34.65335938 7.54296875 34.66796875 C15.60517412 35.06202634 15.60517412 35.06202634 19.375 38.0625 C20.014375 38.908125 20.65375 39.75375 21.3125 40.625 C21.9725 41.285 22.6325 41.945 23.3125 42.625 C23.80851221 45.76641064 23.59697351 47.17973712 21.875 49.875 C15.40854597 54.29111495 4.22463529 52.97623063 -3.375 53.125 C-4.57189453 53.17914063 -5.76878906 53.23328125 -7.00195312 53.2890625 C-15.44107145 53.42055683 -15.44107145 53.42055683 -18.85400391 51.2421875 C-21.48232926 48.44357193 -22.55673121 46.28463749 -23.3046875 42.51171875 C-22.53506032 38.91200683 -21.23150641 37.20387238 -18.8125 34.4375 C-18.00167969 33.4990625 -17.19085938 32.560625 -16.35546875 31.59375 C-15.47503906 30.6140625 -14.59460938 29.634375 -13.6875 28.625 C-13.2229541 28.10550781 -12.7584082 27.58601563 -12.27978516 27.05078125 C-9.44340097 23.88294782 -6.57742503 20.7441884 -3.6875 17.625 C-5.31365234 17.23248047 -5.31365234 17.23248047 -6.97265625 16.83203125 C-11.86529267 15.24231027 -14.05360529 12.94944414 -16.6875 8.625 C-17.25 5.875 -17.25 5.875 -16.6875 3.625 C-12.98424265 -1.54244538 -5.70087861 0.02883601 0 0 Z " fill="#F3C946" transform="translate(273.6875,197.375)"/>
<path d="M0 0 C1.26328125 -0.03673828 2.5265625 -0.07347656 3.828125 -0.11132812 C14.25351177 -0.16060779 14.25351177 -0.16060779 18.578125 3.16015625 C20.74268541 5.48944151 21.37751922 6.92543933 22.46875 10.03125 C22.19414215 14.46420524 20.54206101 16.8073079 17.75 20.0625 C17.06466187 20.90615112 17.06466187 20.90615112 16.36547852 21.7668457 C13.29858782 25.48850816 10.06193817 29.00787511 6.52734375 32.29296875 C5.11990248 33.55674809 5.11990248 33.55674809 4.25 35.5625 C5.44496094 35.45808594 5.44496094 35.45808594 6.6640625 35.3515625 C15.00333571 34.92546825 15.00333571 34.92546825 18.3828125 36.65234375 C21.40223988 39.40191893 22.18203049 41.16147991 22.875 45.25 C22.25 48.5625 22.25 48.5625 20.79296875 50.2265625 C16.94703541 52.24700674 13.22614306 52.14128966 8.9375 52.25 C8.04973877 52.27763428 7.16197754 52.30526855 6.24731445 52.33374023 C4.44107179 52.38715631 2.6346593 52.43511683 0.828125 52.47753906 C-1.51023972 52.55459881 -3.82487975 52.70809961 -6.15625 52.8984375 C-15.38988585 53.43398838 -15.38988585 53.43398838 -19.26171875 50.953125 C-21.27265106 48.85132542 -22.65740693 47.26101651 -23.75 44.5625 C-23.21029778 34.46689385 -10.41381911 24.69180647 -3.75 17.5625 C-5.44382812 17.13130859 -5.44382812 17.13130859 -7.171875 16.69140625 C-10.75 15.5625 -10.75 15.5625 -12 13.5 C-12.2475 12.860625 -12.495 12.22125 -12.75 11.5625 C-13.74 11.2325 -14.73 10.9025 -15.75 10.5625 C-17.09250687 4.09405782 -17.09250687 4.09405782 -15.65527344 1.86352539 C-11.34478687 -1.07991168 -5.0304383 0.00760651 0 0 Z " fill="#F2C947" transform="translate(324.75,197.4375)"/>
<path d="M0 0 C0.96357422 -0.01224609 1.92714844 -0.02449219 2.91992188 -0.03710938 C3.84998047 -0.03904297 4.78003906 -0.04097656 5.73828125 -0.04296875 C6.59075439 -0.04707764 7.44322754 -0.05118652 8.3215332 -0.05541992 C12.58194603 0.38200767 14.45568405 1.9504155 17.4375 5 C19.6875 8.1875 19.6875 8.1875 20.1875 10.875 C19.56097326 13.77268618 19.13465258 14.49814417 16.6875 16.1875 C13.87622957 16.40464241 11.2991655 16.47034276 8.5 16.375 C7.75041016 16.36146484 7.00082031 16.34792969 6.22851562 16.33398438 C4.38120233 16.29868539 2.53425934 16.24487917 0.6875 16.1875 C0.6875 18.1675 0.6875 20.1475 0.6875 22.1875 C1.409375 22.084375 2.13125 21.98125 2.875 21.875 C6.82031296 22.31336811 8.13341214 24.27867771 10.6875 27.1875 C11.0175 27.5175 11.3475 27.8475 11.6875 28.1875 C11.875 31.625 11.875 31.625 11.6875 35.1875 C9.6875 37.1875 9.6875 37.1875 6.8671875 37.3828125 C5.23136719 37.34800781 5.23136719 37.34800781 3.5625 37.3125 C2.46679688 37.29445313 1.37109375 37.27640625 0.2421875 37.2578125 C-0.60085938 37.23460937 -1.44390625 37.21140625 -2.3125 37.1875 C-2.3125 38.8375 -2.3125 40.4875 -2.3125 42.1875 C-1.35988281 42.12949219 -0.40726562 42.07148438 0.57421875 42.01171875 C10.66827602 41.64862316 10.66827602 41.64862316 13.66015625 43.23046875 C14.9375 44.5625 14.9375 44.5625 16.6875 47.1875 C17.3475 47.8475 18.0075 48.5075 18.6875 49.1875 C19 52.6875 19 52.6875 18.6875 56.1875 C14.00592913 59.30854725 8.97887103 58.90288462 3.45556641 59.15014648 C1.45677302 59.24904637 -0.53940959 59.39676172 -2.53515625 59.54492188 C-13.37961219 60.0448436 -13.37961219 60.0448436 -17.796875 56.30859375 C-20.02653031 53.43966167 -20.69119892 51.50420889 -20.3984375 47.89453125 C-20.05152234 45.98938282 -19.68685342 44.08744741 -19.3125 42.1875 C-19.0220395 40.07576119 -18.76606312 37.9612095 -18.51080322 35.84494019 C-18.12382506 32.6683871 -17.694018 29.49809624 -17.265625 26.3269043 C-17.0457602 24.68397116 -16.83063662 23.04039698 -16.62011719 21.39624023 C-16.31239024 18.99563657 -15.98984324 16.59743086 -15.6640625 14.19921875 C-15.52794052 13.10380013 -15.52794052 13.10380013 -15.3890686 11.98625183 C-13.79558708 0.64151684 -10.14926678 0.00670804 0 0 Z " fill="#5BB37A" transform="translate(357.3125,278.8125)"/>
<path d="M0 0 C4.50063025 0.83910056 5.63670029 2.12802746 8.42797852 5.56811523 C10.62117258 9.25858192 10.53692625 12.85962112 10.5 17.0625 C10.52470033 18.67452184 10.55203575 20.2865055 10.58203125 21.8984375 C10.59057129 22.6831543 10.59911133 23.46787109 10.60791016 24.27636719 C10.73453967 28.11254215 11.21064712 31.88030657 11.6875 35.6875 C16.26050546 33.7127931 19.03705995 31.9471358 21.6875 27.6875 C23.8589971 21.63016598 24.04916867 15.52851574 24.25854492 9.1472168 C24.47719198 3.89780802 24.47719198 3.89780802 26.6875 1.6875 C32.89262821 1.12339744 32.89262821 1.12339744 35.625 3.0625 C36.6875 4.6875 36.6875 4.6875 36.6875 6.6875 C37.6775 7.0175 38.6675 7.3475 39.6875 7.6875 C42.91677647 14.14605294 40.95067674 23.856125 39.0625 30.5 C36.4381583 38.10409962 32.68453086 45.31435571 25.6875 49.6875 C20.85851674 51.83371478 16.88503276 52.1000026 11.6875 51.6875 C4.38176168 47.96592484 -0.82122194 41.79804737 -3.75 34.1875 C-5.27349411 29.32842627 -6.12911786 24.76871338 -6.3125 19.6875 C-6.3640625 18.44871094 -6.415625 17.20992187 -6.46875 15.93359375 C-6.73635053 5.46687888 -6.73635053 5.46687888 -5.00390625 2.28125 C-3.3125 0.6875 -3.3125 0.6875 0 0 Z " fill="#F3CA46" transform="translate(181.3125,205.3125)"/>
<path d="M0 0 C4.00677388 0.62174077 5.14725916 1.59849438 7.59472656 4.74145508 C9.37425743 7.88683914 9.32242833 11.17406315 9.3125 14.6875 C9.35154318 16.18894713 9.39585288 17.69026615 9.4453125 19.19140625 C9.46754883 19.92762207 9.48978516 20.66383789 9.51269531 21.42236328 C9.76315275 26.19521088 10.69620208 30.88244057 11.625 35.5625 C17.83402632 32.69679554 20.19735761 29.91874647 22.625 23.5625 C24.13046608 19.04610177 23.98250962 14.36264255 24.14257812 9.63476562 C24.41044586 3.77705414 24.41044586 3.77705414 26.625 1.5625 C29.8125 0.875 29.8125 0.875 33.625 1.5625 C37.75314475 4.74661165 40.18019031 8.41211432 41.23828125 13.52734375 C41.72718821 24.82807897 38.06851277 37.21848102 30.5703125 45.8203125 C25.99426544 49.91853939 21.03729493 51.72419205 14.9375 52.0625 C9.68952709 51.77094595 6.61623752 49.72840748 3.06640625 45.8671875 C-4.72379222 36.27028465 -6.5595364 25.9500709 -6.625 13.9375 C-6.645625 12.98359375 -6.66625 12.0296875 -6.6875 11.046875 C-6.69265625 10.13164062 -6.6978125 9.21640625 -6.703125 8.2734375 C-6.7124707 7.44118652 -6.72181641 6.60893555 -6.73144531 5.75146484 C-6.04467475 1.53394099 -4.02839358 0.67139893 0 0 Z " fill="#5AB37A" transform="translate(241.375,285.4375)"/>
<path d="M0 0 C1.29808594 -0.04060547 2.59617188 -0.08121094 3.93359375 -0.12304688 C10.26531021 -0.1456371 14.70082703 -0.11113786 19.609375 4.16796875 C20.68996797 5.31016426 21.74705149 6.47655573 22.75 7.6875 C23.245 8.1825 23.245 8.1825 23.75 8.6875 C23.98529412 14.21691176 23.98529412 14.21691176 22.75 16.6875 C18.46 16.6875 14.17 16.6875 9.75 16.6875 C9.76160156 18.19699219 9.77320313 19.70648438 9.78515625 21.26171875 C9.88798456 39.50769439 9.88798456 39.50769439 9.5 47.3125 C9.43039063 48.72402344 9.43039063 48.72402344 9.359375 50.1640625 C8.55629736 53.48962761 7.14938263 55.27947094 4.75 57.6875 C1.3125 57.875 1.3125 57.875 -2.25 56.6875 C-5.91238889 53.226516 -7.10428283 51.79016579 -7.7734375 46.7265625 C-7.75077579 45.25455105 -7.70005603 43.78277136 -7.625 42.3125 C-7.60501953 41.53535645 -7.58503906 40.75821289 -7.56445312 39.95751953 C-7.49173035 37.5316253 -7.37771093 35.11108307 -7.25 32.6875 C-7.21036133 31.89666016 -7.17072266 31.10582031 -7.12988281 30.29101562 C-6.89286741 25.75169671 -6.59578656 21.21977384 -6.25 16.6875 C-8.23 16.6875 -10.21 16.6875 -12.25 16.6875 C-12.518125 16.048125 -12.78625 15.40875 -13.0625 14.75 C-14.13667752 12.35618314 -14.13667752 12.35618314 -17.25 11.6875 C-18 8.4375 -18 8.4375 -18.25 4.6875 C-13.81290045 -1.47140795 -6.8943775 -0.01014874 0 0 Z " fill="#5BB37A" transform="translate(206.25,281.3125)"/>
<path d="M0 0 C10.03906692 3.08229601 17.80870174 9.10792596 23.28515625 18.11328125 C27.51235951 26.15860359 28.35242758 35.10341576 26.31640625 43.98046875 C23.89354261 51.26916642 20.52848856 56.62210553 14.125 60.9375 C13.073125 61.4634375 13.073125 61.4634375 12 62 C12.13277344 61.34773438 12.26554687 60.69546875 12.40234375 60.0234375 C12.66724609 58.71246094 12.66724609 58.71246094 12.9375 57.375 C13.11152344 56.51648438 13.28554688 55.65796875 13.46484375 54.7734375 C15.81828569 42.57676758 15.69781475 32.63967495 11 21 C10.91568932 23.98205863 10.91568932 23.98205863 11.48046875 26.80859375 C13.60214035 39.84171927 10.73645638 52.28930568 8 65 C7.01 65 6.02 65 5 65 C5.144375 63.906875 5.28875 62.81375 5.4375 61.6875 C5.48491948 56.31961524 2.62694649 53.02594911 -0.30859375 48.73828125 C-4.08278594 42.62809943 -4.98908912 35.10101105 -3.62280273 28.0546875 C-3.10814448 25.98696782 -2.55902619 23.93114753 -2 21.875 C-0.08764009 14.41007191 0.48383935 7.72798962 0 0 Z " fill="#4CB94A" transform="translate(443,236)"/>
<path d="M0 0 C1.093125 0.0825 2.18625 0.165 3.3125 0.25 C3.580625 0.889375 3.84875 1.52875 4.125 2.1875 C5.19917752 4.58131686 5.19917752 4.58131686 8.3125 5.25 C9.78561872 8.19623745 9.22393354 11.04637178 9 14.25 C8.92833618 15.34127197 8.92833618 15.34127197 8.85522461 16.45458984 C8.74421923 18.10763787 8.62980076 19.76045885 8.51269531 21.41308594 C8.36987979 23.43688633 8.23171678 25.46101728 8.09667969 27.48535156 C7.86483366 30.94922983 7.62134079 34.41212454 7.375 37.875 C7.30047607 38.98875 7.22595215 40.1025 7.14916992 41.25 C6.34734181 52.07426995 6.34734181 52.07426995 4.3125 57.25 C1.07996204 59.40502531 0.06099077 59.71856135 -3.6875 59.25 C-5.5 57.875 -5.5 57.875 -6.6875 56.25 C-6.6875 55.59 -6.6875 54.93 -6.6875 54.25 C-7.6775 53.92 -8.6675 53.59 -9.6875 53.25 C-10.07665656 41.16452674 -9.04632679 29.20394095 -7.94580078 17.17773438 C-7.77605976 15.25378891 -7.62792624 13.32779194 -7.50341797 11.40039062 C-7.43912598 10.52060547 -7.37483398 9.64082031 -7.30859375 8.734375 C-7.26017334 7.96319336 -7.21175293 7.19201172 -7.16186523 6.39746094 C-6.14961308 1.81497513 -4.66624741 0.31635576 0 0 Z " fill="#F2C946" transform="translate(236.6875,202.75)"/>
<path d="M0 0 C3 1 3 1 4 3 C5.13123691 16.29666988 2.67352802 28.59176638 -6 39 C-10.41612752 43.30572433 -14.93949142 45.04778346 -21.0625 45.3125 C-25.0823967 44.99346058 -26.88305708 44.47521938 -30 42 C-30.66 41.01 -31.32 40.02 -32 39 C-31.34 39.165 -30.68 39.33 -30 39.5 C-22.93957762 40.67673706 -18.7069463 40.61102 -12.81640625 36.47265625 C-5.77073476 30.76035915 -2.42293658 22.85092663 -1 14 C-0.78301513 11.56494763 -0.59709255 9.12698616 -0.4375 6.6875 C-0.35371094 5.43324219 -0.26992187 4.17898437 -0.18359375 2.88671875 C-0.09271484 1.45779297 -0.09271484 1.45779297 0 0 Z " fill="#A09E98" transform="translate(218,212)"/>
<path d="M0 0 C2.57532331 2.14524943 3.86956115 3.37659226 4.56640625 6.70703125 C4.55168654 18.40920286 1.80654961 30.23951019 -6.0546875 39.2578125 C-11.20523364 43.87055061 -17.04631997 45.69541811 -23.9140625 45.40625 C-27.30996649 44.74487544 -29.34612206 43.17754087 -32 41 C-28.96891325 39.98963775 -27.43075579 40.03461028 -24.3125 40.25 C-18.65077055 40.28296495 -15.2085631 38.73792809 -11 35 C-3.87098989 27.41835433 -1.65927882 19.11473412 -0.8125 9 C-0.73064453 8.12988281 -0.64878906 7.25976562 -0.56445312 6.36328125 C-0.36641309 4.24308794 -0.18179444 2.12164801 0 0 Z " fill="#9C9E9D" transform="translate(278,292)"/>
<path d="M0 0 C2 1.125 2 1.125 4 3 C4.31900332 6.12623255 4.41441874 8.17116253 3 11 C-1.29 11 -5.58 11 -10 11 C-9.98839844 12.50949219 -9.97679687 14.01898438 -9.96484375 15.57421875 C-9.86201544 33.82019439 -9.86201544 33.82019439 -10.25 41.625 C-10.31960937 43.03652344 -10.31960937 43.03652344 -10.390625 44.4765625 C-11.19650646 47.81373828 -12.56672068 49.60582695 -15 52 C-18.75 51.8125 -18.75 51.8125 -22 51 C-22.495 49.515 -22.495 49.515 -23 48 C-22.030625 47.731875 -21.06125 47.46375 -20.0625 47.1875 C-18.5465625 46.5996875 -18.5465625 46.5996875 -17 46 C-15.86528025 42.59584075 -15.7068282 39.68643074 -15.5 36.1015625 C-15.45939453 35.42958832 -15.41878906 34.75761414 -15.37695312 34.0652771 C-15.24745342 31.9187261 -15.12317619 29.77192254 -15 27.625 C-14.8766261 25.48523394 -14.75199403 23.34558408 -14.62304688 21.20614624 C-14.50575293 19.25953802 -14.39337456 17.31263547 -14.28125 15.36572266 C-14.04129541 12.4941827 -13.64063947 9.80479966 -13 7 C-12.30132812 7.01160156 -11.60265625 7.02320313 -10.8828125 7.03515625 C-9.97273437 7.04417969 -9.06265625 7.05320312 -8.125 7.0625 C-7.22007812 7.07410156 -6.31515625 7.08570313 -5.3828125 7.09765625 C-2.9831415 7.16249257 -2.9831415 7.16249257 -1 6 C-0.34227572 2.97065509 -0.34227572 2.97065509 0 0 Z " fill="#999C9A" transform="translate(226,287)"/>
<path d="M0 0 C2.00268555 1.25146484 2.00268555 1.25146484 4 3 C3.96193249 6.52297542 3.59008624 9.54052447 3 13 C2.76955852 14.43710063 2.53961646 15.8742814 2.31005859 17.31152344 C1.63233332 21.47205564 0.9025425 25.62177299 0.15356445 29.77001953 C-0.15884345 31.51616532 -0.46411035 33.26360285 -0.76245117 35.01220703 C-1.19732991 37.56061068 -1.65285595 40.10454089 -2.11328125 42.6484375 C-2.24261551 43.42762543 -2.37194977 44.20681335 -2.50520325 45.00961304 C-3.34898857 49.50729264 -4.27097457 52.23170444 -8 55 C-10.5 55.5625 -10.5 55.5625 -13 55 C-15.3125 52.5 -15.3125 52.5 -17 50 C-13.535 49.505 -13.535 49.505 -10 49 C-7.76551487 42.84795369 -6.24740854 36.82191133 -5.17578125 30.37109375 C-5.02465378 29.49598648 -4.87352631 28.62087921 -4.71781921 27.71925354 C-4.242799 24.95974822 -3.77748774 22.19871159 -3.3125 19.4375 C-2.98957646 17.55132189 -2.66601455 15.66525296 -2.34179688 13.77929688 C-1.55382038 9.18742564 -0.77453881 4.59415612 0 0 Z " fill="#9C9E9C" transform="translate(133,290)"/>
<path d="M0 0 C1 1 1 1 1.1875 4.75 C1.15615249 8.23584286 0.57760458 10.84479083 -1 14 C-4.875 12.125 -4.875 12.125 -6 11 C-8.33944736 11.28730055 -10.6739143 11.61936779 -13 12 C-13.86382428 14.75706416 -13.86382428 14.75706416 -14 18 C-12.06102121 20.67398476 -12.06102121 20.67398476 -10 23 C-10.33 23.99 -10.66 24.98 -11 26 C-13.31 26 -15.62 26 -18 26 C-19.76708611 22.46582777 -19.51445456 18.85840923 -19 15 C-15.64158785 5.21428184 -10.87024385 -1.10544853 0 0 Z " fill="#FCFBF7" transform="translate(154,221)"/>
<path d="M0 0 C3 1 3 1 4 3 C3.96020804 5.35078685 3.85128633 7.65684712 3.6875 10 C3.63972412 10.72751465 3.59194824 11.4550293 3.54272461 12.20458984 C3.43171923 13.85763787 3.31730076 15.51045885 3.20019531 17.16308594 C3.05737979 19.18688633 2.91921678 21.21101728 2.78417969 23.23535156 C2.55233366 26.69922983 2.30884079 30.16212454 2.0625 33.625 C1.98797607 34.73875 1.91345215 35.8525 1.83666992 37 C1.03484181 47.82426995 1.03484181 47.82426995 -1 53 C-4.22143276 55.14762184 -5.2595467 55.561068 -9 55 C-10.8125 53 -10.8125 53 -12 51 C-11.05125 50.731875 -10.1025 50.46375 -9.125 50.1875 C-5.74732727 49.25013412 -5.74732727 49.25013412 -4 46 C-3.56170659 43.84512373 -3.56170659 43.84512373 -3.40576172 41.43676758 C-3.2858638 40.05567558 -3.2858638 40.05567558 -3.1635437 38.64668274 C-3.08637115 37.65597275 -3.00919861 36.66526276 -2.9296875 35.64453125 C-2.84373322 34.62775803 -2.75777893 33.6109848 -2.66921997 32.56340027 C-2.39637839 29.31371505 -2.13555433 26.06319122 -1.875 22.8125 C-1.69219649 20.60996031 -1.50861242 18.40748526 -1.32421875 16.20507812 C-0.87375037 10.80410293 -0.43314636 5.40239046 0 0 Z " fill="#9F9F9C" transform="translate(242,207)"/>
<path d="M0 0 C4.99541655 4.73249989 7.22343495 7.47482117 7.42919922 14.48291016 C7.43193848 15.1691748 7.43467773 15.85543945 7.4375 16.5625 C7.44547607 17.62670166 7.44547607 17.62670166 7.45361328 18.71240234 C7.33699593 24.50527099 5.70394893 28.62717163 2.98046875 33.74609375 C1.69684021 36.09790957 1.69684021 36.09790957 2.6875 39.1875 C3.120625 40.115625 3.55375 41.04375 4 42 C4.44779506 45.5280823 4.66634715 48.81538285 2.875 52 C0.06836961 53.49686954 -1.87757843 53.45535315 -5 53 C-6.875 51 -6.875 51 -8 49 C-5.69 48.34 -3.38 47.68 -1 47 C-0.92538541 42.82158303 -0.95253979 39.24521109 -1.75 35.125 C-2.40537504 30.64365172 -0.84645388 27.33417146 0.9921875 23.296875 C3.31593627 18.00088943 3.55658953 12.72359566 3 7 C1.6490712 4.0745356 1.6490712 4.0745356 0 2 C0 1.34 0 0.68 0 0 Z " fill="#A09E99" transform="translate(163,213)"/>
<path d="M0 0 C2 1.1875 2 1.1875 4 3 C4.65417091 6.18908321 4.3137859 7.50885685 2.5625 10.25 C-4.13534295 14.82413665 -15.26767378 13.11637174 -23.0625 13.0625 C-24.30966797 13.05798828 -25.55683594 13.05347656 -26.84179688 13.04882812 C-29.89458221 13.03713163 -32.94726498 13.02074086 -36 13 C-36.66 11.68 -37.32 10.36 -38 9 C-36.47862427 8.92483154 -36.47862427 8.92483154 -34.92651367 8.84814453 C-31.16330492 8.65978783 -27.40081668 8.45939944 -23.63842773 8.25537109 C-22.01001847 8.16875185 -20.38143221 8.08539575 -18.75268555 8.00537109 C-16.41140405 7.88976987 -14.07101014 7.76244384 -11.73046875 7.6328125 C-11.00224411 7.59938751 -10.27401947 7.56596252 -9.52372742 7.53152466 C-5.87631065 7.31770899 -4.11060485 7.07373657 -1 5 C-0.27034634 2.43717258 -0.27034634 2.43717258 0 0 Z " fill="#A2A09A" transform="translate(293,237)"/>
<path d="M0 0 C5.41001737 6.14774702 5.30849639 13.4414398 5.30078125 21.203125 C5.30506638 22.16273132 5.3093515 23.12233765 5.31376648 24.11102295 C5.31948394 26.12804375 5.32002921 28.14508517 5.31567383 30.16210938 C5.31249562 33.25425883 5.33606802 36.34546735 5.36132812 39.4375 C5.36359949 41.40104046 5.36430537 43.36458349 5.36328125 45.328125 C5.372491 46.25312805 5.38170074 47.1781311 5.39118958 48.13116455 C5.38496078 48.9892572 5.37873199 49.84734985 5.37231445 50.73144531 C5.37294388 51.48532532 5.3735733 52.23920532 5.3742218 53.01593018 C4.89552481 55.55391232 4.02286997 56.43847042 2 58 C-0.5 58.4375 -0.5 58.4375 -3 58 C-4.8125 56 -4.8125 56 -6 54 C-5.030625 53.690625 -4.06125 53.38125 -3.0625 53.0625 C-0.15934208 52.30476658 -0.15934208 52.30476658 1 51 C1.10068396 49.02811406 1.1308204 47.05257871 1.1328125 45.078125 C1.13474609 43.83369629 1.13667969 42.58926758 1.13867188 41.30712891 C1.13456218 39.95475117 1.12999611 38.60237475 1.125 37.25 C1.12411377 36.57604187 1.12322754 35.90208374 1.12231445 35.20770264 C1.10411276 23.45115652 0.72531468 11.73455534 0 0 Z " fill="#9D9E9D" transform="translate(178,287)"/>
<path d="M0 0 C0.99 0.66 1.98 1.32 3 2 C3.52867766 6.01509253 3.45761024 8.24164355 1.34765625 11.73828125 C0.59355469 12.58777344 -0.16054688 13.43726563 -0.9375 14.3125 C-1.75863281 15.24320313 -2.57976562 16.17390625 -3.42578125 17.1328125 C-4.27527344 18.07898438 -5.12476563 19.02515625 -6 20 C-6.77730469 20.96679688 -7.55460937 21.93359375 -8.35546875 22.9296875 C-13.91170561 29.68132816 -13.91170561 29.68132816 -17.12109375 30.62109375 C-19.0625 30.625 -19.0625 30.625 -22 30 C-20.54493492 26.59726968 -18.69677232 24.57146139 -16 22.0625 C-12.16992143 18.31946867 -8.77385987 14.41246851 -5.5 10.1875 C-5.066875 9.63650635 -4.63375 9.0855127 -4.1875 8.51782227 C-2.0906961 5.76534712 -0.47113712 3.47463628 0 0 Z " fill="#9E9D99" transform="translate(293,203)"/>
<path d="M0 0 C0.99 0.66 1.98 1.32 3 2 C3.4375 5.4375 3.4375 5.4375 3 9 C0.58780163 11.80336567 -1.70749175 12.22584786 -5.23828125 12.51171875 C-6.92906082 12.58623563 -8.62063919 12.6439647 -10.3125 12.6875 C-11.63979126 12.733302 -11.63979126 12.733302 -12.99389648 12.7800293 C-14.79714746 12.83804143 -16.60064205 12.88892779 -18.40429688 12.93261719 C-20.78704168 12.99447174 -23.16571982 13.09035508 -25.546875 13.1953125 C-26.88535195 13.23653285 -28.22389335 13.27573155 -29.5625 13.3125 C-30.73941406 13.34988281 -31.91632813 13.38726562 -33.12890625 13.42578125 C-36 13 -36 13 -37.67944336 10.97338867 C-38.11522705 10.32217041 -38.55101074 9.67095215 -39 9 C-37.95545654 8.95512451 -36.91091309 8.91024902 -35.8347168 8.86401367 C-31.95945607 8.69376843 -28.08529154 8.50486156 -24.21118164 8.31030273 C-22.53433861 8.2287073 -20.85724123 8.152175 -19.17993164 8.08081055 C-16.76884532 7.97734576 -14.35926032 7.855701 -11.94921875 7.73046875 C-10.82407112 7.6880732 -10.82407112 7.6880732 -9.67619324 7.64482117 C-5.60100841 7.42449937 -5.60100841 7.42449937 -2.04614258 5.59106445 C-0.83887466 3.7549466 -0.37179845 2.15643103 0 0 Z " fill="#9D9B98" transform="translate(344,237)"/>
<path d="M0 0 C0.66 0 1.32 0 2 0 C3.0996482 4.35460688 3.39676066 6.29390052 1.15625 10.28125 C0.29226021 11.37149515 -0.59434042 12.44411479 -1.5 13.5 C-1.95689209 14.06243408 -2.41378418 14.62486816 -2.88452148 15.2043457 C-5.95141218 18.92600816 -9.18806183 22.44537511 -12.72265625 25.73046875 C-14.13009752 26.99424809 -14.13009752 26.99424809 -15 29 C-17.31 29 -19.62 29 -22 29 C-20.62322312 25.8628666 -19.07494493 23.93373318 -16.5625 21.625 C-12.72016872 17.88861536 -9.37138264 13.89133292 -6.0625 9.6875 C-5.3355896 8.77121826 -5.3355896 8.77121826 -4.59399414 7.83642578 C-2.57517074 5.242182 -1.04736229 3.14208686 0 0 Z " fill="#9C9B99" transform="translate(344,204)"/>
<path d="M0 0 C2.4375 2 2.4375 2 4 4 C2.205625 4.0928125 2.205625 4.0928125 0.375 4.1875 C-4.13817259 4.78553524 -7.13070992 6.45158801 -10 10 C-14.16518028 16.44180056 -14.50538945 22.48935123 -14 30 C-17.43511962 26.67569069 -19.15141497 24.81567767 -19.375 20 C-19.30981051 14.23538687 -17.14579857 9.75289132 -14 5 C-9.40060837 0.61453356 -6.3840622 -0.55035019 0 0 Z " fill="#9F9D96" transform="translate(150,217)"/>
<path d="M0 0 C0.99 0.66 1.98 1.32 3 2 C3.375 5.5 3.375 5.5 3 9 C-1.72816823 12.15211215 -6.87723525 11.601692 -12.45166016 11.79785156 C-14.49411975 11.87477853 -16.5333177 11.98356397 -18.57421875 12.09375 C-20.50201172 12.16722656 -20.50201172 12.16722656 -22.46875 12.2421875 C-23.64888672 12.2922998 -24.82902344 12.34241211 -26.04492188 12.39404297 C-29 12 -29 12 -30.90820312 9.98486328 C-31.26849609 9.3298584 -31.62878906 8.67485352 -32 8 C-30.69796631 7.92483154 -30.69796631 7.92483154 -29.36962891 7.84814453 C-26.15249064 7.65798799 -22.93600492 7.45951901 -19.71972656 7.25537109 C-18.32702708 7.16869259 -16.93411645 7.08534056 -15.54101562 7.00537109 C-13.53984158 6.88991875 -11.53942591 6.76154876 -9.5390625 6.6328125 C-7.73236084 6.52283936 -7.73236084 6.52283936 -5.88916016 6.41064453 C-2.87719897 6.27757748 -2.87719897 6.27757748 -1 4 C-0.3574765 1.93125966 -0.3574765 1.93125966 0 0 Z " fill="#989A99" transform="translate(373,326)"/>
<path d="M0 0 C4.29 0 8.58 0 13 0 C13 1.32 13 2.64 13 4 C10.03 4 7.06 4 4 4 C3.87882813 4.81984375 3.75765625 5.6396875 3.6328125 6.484375 C3.38144531 8.10085938 3.38144531 8.10085938 3.125 9.75 C2.96257812 10.81734375 2.80015625 11.8846875 2.6328125 12.984375 C2.06776118 15.67708871 1.36577086 17.63572439 0 20 C-2.31 20 -4.62 20 -7 20 C-7.66 18.68 -8.32 17.36 -9 16 C-8.04867187 15.81695312 -7.09734375 15.63390625 -6.1171875 15.4453125 C-2.67683521 14.29064602 -2.67683521 14.29064602 -1.7578125 10.7421875 C-1.54898438 9.46601563 -1.34015625 8.18984375 -1.125 6.875 C-0.90070313 5.59367187 -0.67640625 4.31234375 -0.4453125 2.9921875 C-0.29835937 2.00476563 -0.15140625 1.01734375 0 0 Z " fill="#989C99" transform="translate(155,325)"/>
<path d="M0 0 C1.89213369 2.38573379 3.02391783 4.07175348 4 7 C3.59226958 8.59694416 3.16894975 10.19152998 2.66796875 11.76171875 C1.53322833 15.56409453 0.73893227 19.4555507 -0.12109375 23.328125 C-1.02510917 26.07633187 -1.65599482 27.33391789 -4 29 C-7.0625 28.875 -7.0625 28.875 -10 28 C-10.66 27.01 -11.32 26.02 -12 25 C-10.576875 24.6596875 -10.576875 24.6596875 -9.125 24.3125 C-5.90453573 23.34786328 -5.90453573 23.34786328 -4.90234375 20.9296875 C-3.7721649 17.26027564 -3.08409745 13.59287136 -2.4375 9.8125 C-1.12397681 2.24795362 -1.12397681 2.24795362 0 0 Z " fill="#9B9E9C" transform="translate(106,321)"/>
<path d="M0 0 C2 1.1875 2 1.1875 4 3 C4.48281869 5.75896397 4.46577782 7.24579822 2.984375 9.64453125 C-0.15988846 11.79228602 -3.52391186 11.31228597 -7.1875 11.1875 C-8.31188477 11.16719727 -8.31188477 11.16719727 -9.45898438 11.14648438 C-11.30629767 11.11118539 -13.15324066 11.05737917 -15 11 C-15 12.65 -15 14.3 -15 16 C-16.32 16 -17.64 16 -19 16 C-19.09765625 9.84765625 -19.09765625 9.84765625 -19 8 C-16.88074396 5.88074396 -12.3803907 6.58168983 -9.4375 6.4375 C-8.63119141 6.39431641 -7.82488281 6.35113281 -6.99414062 6.30664062 C-4.99631195 6.20024738 -2.9981793 6.09959112 -1 6 C-0.67 4.02 -0.34 2.04 0 0 Z " fill="#999C9A" transform="translate(373,284)"/>
<path d="M0 0 C1.65 0.99 3.3 1.98 5 3 C4.01 3.495 4.01 3.495 3 4 C2.9906543 4.57967529 2.98130859 5.15935059 2.97167969 5.7565918 C2.9177593 8.40106946 2.83415871 11.04381893 2.75 13.6875 C2.72873047 15.05551758 2.72873047 15.05551758 2.70703125 16.45117188 C2.55047305 20.75652235 2.38490107 23.36567029 0.11328125 27.109375 C-2 29 -2 29 -4.5625 29.5625 C-7 29 -7 29 -8.8125 27 C-9.204375 26.34 -9.59625 25.68 -10 25 C-8.865625 24.566875 -7.73125 24.13375 -6.5625 23.6875 C-5.386875 23.130625 -4.21125 22.57375 -3 22 C-1.492495 17.47748499 -1.60549908 12.80341451 -1.39453125 8.07226562 C-1.10073855 2.20147711 -1.10073855 2.20147711 0 0 Z " fill="#999C9A" transform="translate(300,320)"/>
<path d="M0 0 C3.05235716 2.91964598 4.19068466 4.82176368 4.4375 9.0625 C4.39132024 14.77031792 1.80677506 18.87017293 -2 23 C-4.203125 24.25390625 -4.203125 24.25390625 -6 25 C-6.99 23.68 -7.98 22.36 -9 21 C-8.27683594 20.22076172 -8.27683594 20.22076172 -7.5390625 19.42578125 C-1.55515988 12.81906427 0.3014005 8.89131485 0 0 Z " fill="#999C9A" transform="translate(322,293)"/>
<path d="M0 0 C0.99 0.33 1.98 0.66 3 1 C3.125 4.375 3.125 4.375 3 8 C1 10 1 10 -1.8203125 10.1953125 C-2.91085937 10.17210937 -4.00140625 10.14890625 -5.125 10.125 C-6.22070312 10.10695313 -7.31640625 10.08890625 -8.4453125 10.0703125 C-9.28835938 10.04710937 -10.13140625 10.02390625 -11 10 C-11 11.65 -11 13.3 -11 15 C-12.32 15 -13.64 15 -15 15 C-15.04241723 12.66705225 -15.04092937 10.33297433 -15 8 C-13.01016107 6.01016107 -9.14457383 6.62608426 -6.4453125 6.4765625 C-3.61206362 5.92439579 -2.71781425 5.27961514 -1 3 C-0.67 2.01 -0.34 1.02 0 0 Z " fill="#999A9A" transform="translate(366,306)"/>
<path d="M0 0 C3 1 3 1 4 3 C4.13897799 4.35288628 4.2252149 5.71146143 4.28125 7.0703125 C4.33732422 8.29234375 4.33732422 8.29234375 4.39453125 9.5390625 C4.42933594 10.39242187 4.46414062 11.24578125 4.5 12.125 C4.75208927 18.13779599 5.17366465 24.03661319 6 30 C5.34 30 4.68 30 4 30 C-0.65913623 20.27658527 -0.12363666 10.55032842 0 0 Z " fill="#A5A29A" transform="translate(187,210)"/>
<path d="M0 0 C0.66 1.65 1.32 3.3 2 5 C-3.86659698 7.71520938 -9.6440576 7.80326634 -16 7 C-18.92467705 5.63515071 -20.60726492 4.22580008 -23 2 C-22.34 1.67 -21.68 1.34 -21 1 C-20.34 1.33 -19.68 1.66 -19 2 C-17.06539059 2.1228777 -15.12597096 2.17554888 -13.1875 2.1875 C-11.63095703 2.20876953 -11.63095703 2.20876953 -10.04296875 2.23046875 C-6.44347466 1.95784981 -3.50156814 0 0 0 Z " fill="#A29F96" transform="translate(151,256)"/>
<path d="M0 0 C1.485 0.99 1.485 0.99 3 2 C3.33851795 4.70514789 3.50918984 7.22509073 3.5625 9.9375 C3.81670573 16.77932773 4.50941032 23.29958231 6 30 C3 29 3 29 2.05737305 27.30493164 C0.03940578 21.22952636 -0.36984238 15.81013249 -0.1875 9.4375 C-0.17396484 8.52419922 -0.16042969 7.61089844 -0.14648438 6.66992188 C-0.11155315 4.44596741 -0.06251586 2.22332048 0 0 Z " fill="#979D99" transform="translate(247,290)"/>
<path d="M0 0 C0.33 0 0.66 0 1 0 C1.33 4.62 1.66 9.24 2 14 C-0.97 14 -3.94 14 -7 14 C-5.56032356 8.76481294 -3.18303389 4.36973991 0 0 Z " fill="#A2AAA5" transform="translate(166,299)"/>
<path d="M0 0 C2.0625 1.6875 2.0625 1.6875 4 4 C3.9375 6.625 3.9375 6.625 3 9 C-0.49565336 11.33043558 -1.8865729 11.58763244 -6 11 C-8.375 8.5 -8.375 8.5 -10 6 C-8.329375 6.061875 -8.329375 6.061875 -6.625 6.125 C-2.95633975 6.41121859 -2.95633975 6.41121859 -1 4 C-0.3574765 1.93125966 -0.3574765 1.93125966 0 0 Z " fill="#9CA09D" transform="translate(329,332)"/>
<path d="M0 0 C-1.05058594 0.45890625 -2.10117188 0.9178125 -3.18359375 1.390625 C-10.46515723 4.57284161 -17.74365452 7.76056006 -25 11 C-24.78662109 9.13598633 -24.78662109 9.13598633 -24 7 C-22.00634766 5.7956543 -22.00634766 5.7956543 -19.4140625 4.82421875 C-18.48335937 4.47166016 -17.55265625 4.11910156 -16.59375 3.75585938 C-15.6140625 3.40330078 -14.634375 3.05074219 -13.625 2.6875 C-12.65304688 2.31560547 -11.68109375 1.94371094 -10.6796875 1.56054688 C-3.4082906 -1.13609687 -3.4082906 -1.13609687 0 0 Z " fill="#72C665" transform="translate(173,59)"/>
<path d="M0 0 C0.99 0.33 1.98 0.66 3 1 C1.65365543 5.4062186 -0.19374374 7.43077702 -4 10 C-4.66 10 -5.32 10 -6 10 C-5.58578031 5.16743695 -3.53586014 3.17320782 0 0 Z " fill="#929B95" transform="translate(308,296)"/>
<path d="M0 0 C4.29 0 8.58 0 13 0 C12.34 1.32 11.68 2.64 11 4 C5.04296875 4.390625 5.04296875 4.390625 3 4 C2.01 2.68 1.02 1.36 0 0 Z " fill="#A2A29F" transform="translate(312,210)"/>
<path d="M0 0 C4.29 0 8.58 0 13 0 C11.515 1.98 11.515 1.98 10 4 C5.62144505 4.46913089 3.70415293 4.46943529 0 2 C0 1.34 0 0.68 0 0 Z " fill="#A1A09E" transform="translate(262,210)"/>
<path d="M0 0 C2.97 0 5.94 0 9 0 C9 3.96 9 7.92 9 12 C8.67 12 8.34 12 8 12 C8 9.36 8 6.72 8 4 C6.02 4 4.04 4 2 4 C1.34 2.68 0.68 1.36 0 0 Z " fill="#97A69D" transform="translate(192,294)"/>
<path d="M0 0 C0.33 0 0.66 0 1 0 C1 3.63 1 7.26 1 11 C0.01 11.33 -0.98 11.66 -2 12 C-1.85831863 10.56208484 -1.71148957 9.1246763 -1.5625 7.6875 C-1.48128906 6.88699219 -1.40007812 6.08648437 -1.31640625 5.26171875 C-1 3 -1 3 0 0 Z " fill="#EEF8ED" transform="translate(134,41)"/>
<path d="M0 0 C-0.33 0.99 -0.66 1.98 -1 3 C-4.5625 4.6875 -4.5625 4.6875 -8 6 C-7.8125 4.125 -7.8125 4.125 -7 2 C-4.55683729 0.74709605 -2.75474605 0 0 0 Z " fill="#63C057" transform="translate(156,64)"/>
</svg>
